<?xml version="1.0" encoding="utf-8"?>
<!-- Generator: Adobe Illustrator 16.0.0, SVG Export Plug-In . SVG Version: 6.00 Build 0)  -->
<!DOCTYPE svg PUBLIC "-//W3C//DTD SVG 1.1//EN" "http://www.w3.org/Graphics/SVG/1.1/DTD/svg11.dtd">
<svg version="1.1" id="Capa_1" xmlns="http://www.w3.org/2000/svg" xmlns:xlink="http://www.w3.org/1999/xlink" x="0px" y="0px"
	 width="512px" height="512px" viewBox="0 0 512 512" enable-background="new 0 0 512 512" xml:space="preserve">
<path id="dribbble-circle-icon" d="M273.961,276.658c10.744,28.04,18.645,56.891,23.666,86.438
	c-12.814,4.947-26.675,7.771-41.21,7.771c-26.58,0-51.013-9.156-70.496-24.371C208.737,310.713,237.863,287.424,273.961,276.658z
	 M204.59,153.628c-29.497,14.993-51.626,42.312-59.648,75.167c38.856-0.266,72.475-4.526,100.63-12.814
	C233.687,194.62,220.019,173.817,204.59,153.628z M326.436,165.146c-19.408-14.993-43.653-24.014-70.019-24.014
	c-9.736,0-19.145,1.35-28.177,3.644c15.19,20.415,28.648,41.442,40.425,63.007C293.211,197.388,312.48,183.146,326.436,165.146z
	 M264.752,254.305c-2.47-5.564-5.055-11.093-7.757-16.59c-32.233,10.125-70.703,15.258-115.295,15.32
	c-0.026,0.993-0.151,1.964-0.151,2.964c0,27.89,10.011,53.479,26.604,73.397C193.322,291.637,225.596,266.545,264.752,254.305z
	 M297.928,271.559c9.729,26.004,17.168,52.661,22.246,79.92c26.08-17.476,44.516-45.36,49.581-77.643
	C343.585,269.29,319.657,268.492,297.928,271.559z M462.417,256c0,113.771-92.229,206-206,206c-113.771,0-206-92.229-206-206
	c0-113.771,92.229-206,206-206C370.188,50,462.417,142.229,462.417,256z M395.467,256c0-76.796-62.255-139.05-139.05-139.05
	c-76.796,0-139.05,62.254-139.05,139.05c0,76.793,62.254,139.05,139.05,139.05C333.212,395.05,395.467,332.793,395.467,256z
	 M279.771,229.208c3.127,6.438,6.059,12.939,8.887,19.468c25.021-4.31,52.463-4.048,82.299,0.847
	c-1.443-25.685-11.262-49.139-26.898-67.609C328.037,201.881,306.529,217.624,279.771,229.208z"/>
<g>
	<defs>
		<rect id="SVGID_1_" x="117.374" y="106.5" width="278.087" height="300"/>
	</defs>
	<clipPath id="SVGID_2_">
		<use xlink:href="#SVGID_1_"  overflow="visible"/>
	</clipPath>
	<g clip-path="url(#SVGID_2_)">
		<path fill-rule="evenodd" clip-rule="evenodd" d="M467.133,450.363c-137.79,0.007-275.579,0.007-413.431,0.007
			c0-137.745,0-275.502,0-413.37c137.769,0,275.601,0,413.431,0C467.133,174.765,467.133,312.561,467.133,450.363z M356.491,335.355
			c0-1.644,0-3.082,0-4.521c0-22.062,0.109-44.124-0.073-66.183c-0.049-5.75-0.527-11.586-1.642-17.218
			c-3.179-16.08-11.105-28.898-27.099-34.971c-15.854-6.021-40.247-5.589-53.715,14.517c-0.237,0.355-0.675,0.575-1.599,1.332
			c0-5.795,0-10.842,0-15.887c-13.849,0-27.345,0-40.805,0c0,41.113,0,81.939,0,122.832c13.742,0,27.233,0,40.94,0
			c0-1.778,0-3.249,0-4.722c0-21.792-0.178-43.586,0.153-65.374c0.065-4.231,1.391-8.825,3.399-12.571
			c4.504-8.399,13.538-12.148,23.002-10.505c7.958,1.381,13.57,7.547,15.318,17.159c0.575,3.157,0.878,6.406,0.892,9.613
			c0.076,20.717,0.038,41.433,0.038,62.148c0,1.421,0,2.841,0,4.35C329.269,335.355,342.657,335.355,356.491,335.355z
			 M167.911,212.246c0,41.229,0,82.064,0,123.108c13.651,0,27.039,0,40.606,0c0-41.142,0-82.071,0-123.108
			C194.894,212.246,181.589,212.246,167.911,212.246z M188.526,195.475c9.088-0.236,17.005-3.367,21.144-12.636
			c4.277-9.576,0.968-20.909-7.465-26.392c-9.491-6.171-24.492-4.641-31.563,3.394c-6.123,6.959-7.116,14.992-3.433,23.28
			C171.149,191.987,178.792,195.322,188.526,195.475z"/>
		<path fill-rule="evenodd" clip-rule="evenodd" fill="#FFFFFF" d="M356.491,335.355c-13.834,0-27.223,0-41.188,0
			c0-1.509,0-2.929,0-4.35c0-20.716,0.038-41.432-0.038-62.148c-0.014-3.207-0.316-6.456-0.892-9.613
			c-1.748-9.612-7.36-15.778-15.318-17.159c-9.464-1.644-18.498,2.105-23.002,10.505c-2.009,3.747-3.334,8.34-3.399,12.571
			c-0.331,21.788-0.153,43.582-0.153,65.374c0,1.473,0,2.943,0,4.722c-13.707,0-27.198,0-40.94,0c0-40.893,0-81.719,0-122.832
			c13.46,0,26.956,0,40.805,0c0,5.045,0,10.092,0,15.887c0.924-0.757,1.361-0.977,1.599-1.332
			c13.468-20.106,37.861-20.537,53.715-14.517c15.993,6.073,23.92,18.891,27.099,34.971c1.114,5.632,1.593,11.468,1.642,17.218
			c0.183,22.059,0.073,44.121,0.073,66.183C356.491,332.273,356.491,333.712,356.491,335.355z"/>
		<path fill-rule="evenodd" clip-rule="evenodd" fill="#FFFFFF" d="M167.911,212.246c13.679,0,26.983,0,40.606,0
			c0,41.037,0,81.966,0,123.108c-13.567,0-26.955,0-40.606,0C167.911,294.31,167.911,253.475,167.911,212.246z"/>
		<path fill-rule="evenodd" clip-rule="evenodd" fill="#FFFFFF" d="M188.526,195.475c-9.734-0.153-17.377-3.488-21.317-12.354
			c-3.683-8.289-2.69-16.321,3.433-23.28c7.071-8.035,22.073-9.565,31.563-3.394c8.433,5.482,11.742,16.815,7.465,26.392
			C205.531,192.108,197.614,195.239,188.526,195.475z"/>
	</g>
</g>
</svg>
