<?xml version="1.0" encoding="utf-8"?>
<!-- Generator: Adobe Illustrator 19.0.0, SVG Export Plug-In . SVG Version: 6.00 Build 0)  -->
<svg version="1.1" id="Calque_1" xmlns="http://www.w3.org/2000/svg" xmlns:xlink="http://www.w3.org/1999/xlink" x="0px" y="0px"
	 viewBox="-320 198.3 200 200" style="enable-background:new -320 198.3 200 200;" xml:space="preserve">
<style type="text/css">
	.st0{fill:#EEEFEC;}
</style>
<path d="M-219.5,385.9c-48.6,0-88.1-39.5-88.1-88.1s39.5-88.1,88.1-88.1s88.1,39.5,88.1,88.1S-170.9,385.9-219.5,385.9L-219.5,385.9
	z"/>
<path class="st0" d="M-196.3,298.1c-0.1-0.2-0.1-0.3-0.2-0.5c-0.9,0.5-1.7,0.9-2.6,1.3c-0.8,0.4-1.7,0.7-2.6,1
	c-0.9,0.3-1.8,0.5-2.7,0.8c0,0.1,0,0.1,0,0.2s0.1,0.2,0.1,0.4c1.3,3.2,1.8,6.5,1.9,9.9c0,2.8-0.3,5.6-1.2,8.4
	c-1.3,4.1-3.3,7.8-6.3,10.8c-4.4,4.5-9.7,6.9-15.9,7.5c-0.6,0.1-1.2,0-1.8,0.1c0-0.1,0-0.2,0-0.2c0.3-0.2,0.6-0.5,1-0.7
	c6.5-4.9,11.6-11,15.2-18.3c3-6.1,4.5-12.5,4.7-19.3c0.1-3.3-0.2-6.6-0.8-9.9c-0.6-3.7-1.7-7.3-3-10.8c0-0.1-0.2-0.4-0.3-0.5
	c-0.1-0.6-0.1-0.8-0.1-0.9s0-0.3,0-0.3c-0.3-3.1-0.9-6.1-1.7-9c-1.1-4-2.8-7.8-5-11.3c-1.6-2.4-3.4-4.6-5.6-6.5
	c-0.2-0.2-0.4-0.3-0.7-0.5c0,0.1,0,0.2,0,0.3c0.2,0.3,0.3,0.6,0.5,0.9c3.8,6.6,7.2,13.4,10.1,20.5c0.8,1.9,1.5,3.9,2.3,5.8l0.2,0.4
	c0,0.1,0,0.3,0.1,0.9c0,1,0.1,2.1,0.1,3c0.1,5.3,0,10.7-0.6,16c-0.3,2.5-0.6,4.9-1,7.3c-0.5,3.1-1.2,6.1-2.1,9.1
	c-1.1,3.7-2.4,7.2-4.2,10.6c-1.6,3-3.6,5.7-6,8.1c-2.3,2.2-4.8,3.9-7.7,5.1c-0.3,0.1-0.6,0.2-0.9,0.1c-4-0.8-7.5-2.4-10.7-4.9
	c-2.7-2.1-4.9-4.8-6.5-7.9c-1.8-3.3-2.8-6.7-3.2-10.4c-0.2-2.2-0.2-4.3,0.1-6.5c0.3-2.6,1-5.2,2.1-7.6c1.6-3.6,4-6.7,6.9-9.3
	c2.3-2,4.8-3.6,7.7-4.7c1.8-0.7,3.8-1.1,5.7-1.4c1.7-0.2,3.5-0.2,5.2-0.1c2.2,0.2,4.4,0.7,6.5,1.5c0.2,0.1,0.4,0.1,0.6,0.2
	c0.2-1.5,0.5-2.8,0.9-4.2c0.4-1.3,1-2.6,1.6-3.9c-0.3-0.3-0.7-0.3-1-0.4c-2.8-0.9-5.7-1.4-8.7-1.6c-3.2-0.2-6.3,0-9.4,0.7
	c-3.7,0.7-7.2,2.1-10.4,4.1c-3.1,1.9-5.7,4.3-8,7.1c-5.2,6.1-7.9,13.1-8.4,21.1c-0.1,2.3,0,4.6,0.2,6.9c0.4,3.2,1.2,6.3,2.5,9.3
	c2.1,4.8,5.1,8.9,9,12.5c2.9,2.6,6.1,4.6,9.7,6c3.4,1.3,6.9,2,10.5,2.1c3.3,0.2,6.6,0,9.9-0.7c4.4-0.9,8.5-2.7,12.1-5.4
	c2.8-2.1,5.2-4.6,7.4-7.5c4.2-5.6,6.4-11.9,6.8-18.9c0.2-2.9,0-5.7-0.4-8.5C-194.8,302.6-195.4,300.3-196.3,298.1z"/>
<path class="st0" d="M-180,260.3c-0.7-2.7-1.8-5.3-3.2-7.7c-0.2-0.3-0.4-0.7-0.7-1.1c-0.2,0.4-0.4,0.6-0.5,0.9c-1,1.8-2.2,3.5-3.7,5
	c-2.3,2.2-4.9,3.8-8,4.5c-0.3,0.1-0.5,0.1-0.8,0.2c-2.3,0.7-4.5,1.5-6.5,2.7c-1.4,0.8-2.6,1.9-3.6,3.2c-1.9,2.4-2.8,5.1-2.6,8.2
	c0.1,2.5,0.8,4.8,2,7c0.1,0.1,0.1,0.2,0.3,0.4c9.8-2.4,17.1-8,22.2-16.8c0,0.3,0,0.4,0,0.6c-0.2,0.8-0.4,1.5-0.8,2.2
	c-0.8,1.6-1.8,2.9-2.9,4.2c-2,2.2-4.2,4.2-6.6,6c-2.9,2.2-5.9,4.2-9,6c-0.2,0.1-0.5,0.2-0.7,0.5c0.4,0.4,0.8,0.8,1.2,1.1
	c1.6,1.3,3.3,2.4,5.3,3.1c1.9,0.6,3.8,0.8,5.7,0.4c2.4-0.4,4.4-1.5,6.2-3s3.1-3.3,4.3-5.3c0.7-1.2,1.3-2.3,1.7-3.6
	c0.9-2.6,1.4-5.4,1.6-8.1C-178.7,267.2-179.1,263.7-180,260.3z"/>
</svg>
